M48
; DRILL file {KiCad 5.1.4-e60b266~84~ubuntu18.04.1} date Вс 29 сен 2019 15:18:43
; FORMAT={-:-/ absolute / inch / decimal}
; #@! TF.CreationDate,2019-09-29T15:18:43+04:00
; #@! TF.GenerationSoftware,Kicad,Pcbnew,5.1.4-e60b266~84~ubuntu18.04.1
; #@! TF.FileFunction,Plated,1,2,PTH
FMAT,2
INCH
T1C0.0118
T2C0.0354
T3C0.0394
%
G90
G05
T1
X5.0039Y-3.2362
X5.0472Y-4.6496
X5.0689Y-3.3707
X5.0689Y-3.4199
X5.0689Y-3.4691
X5.0748Y-4.8622
X5.0886Y-4.4238
X5.0886Y-4.5026
X5.0886Y-4.5813
X5.0886Y-4.7545
X5.0886Y-4.79
X5.1024Y-3.3425
X5.1083Y-3.7447
X5.1083Y-3.7939
X5.124Y-4.7545
X5.1299Y-3.4646
X5.1299Y-3.689
X5.1358Y-4.6876
X5.1476Y-4.8963
X5.1575Y-3.7447
X5.1575Y-3.7939
X5.1673Y-4.3451
X5.1673Y-4.4238
X5.1673Y-4.5026
X5.1673Y-4.5813
X5.1772Y-4.0157
X5.185Y-4.8622
X5.1988Y-4.6876
X5.2067Y-4.8963
X5.2244Y-4.8228
X5.2264Y-4.7821
X5.2402Y-3.2205
X5.2461Y-4.1876
X5.2461Y-4.2663
X5.2461Y-4.3451
X5.2461Y-4.4238
X5.2657Y-4.7781
X5.2657Y-4.8963
X5.2835Y-4.7244
X5.2894Y-4.6876
X5.3248Y-4.7781
X5.3248Y-4.8963
X5.3268Y-3.189
X5.3425Y-3.8268
X5.3642Y-3.6364
X5.3642Y-3.7152
X5.3738Y-3.4762
X5.378Y-4.7795
X5.3839Y-4.8963
X5.4035Y-4.286
X5.405Y-4.6462
X5.4213Y-3.9488
X5.4429Y-3.6364
X5.4429Y-3.7152
X5.4469Y-3.2033
X5.4626Y-4.286
X5.4626Y-4.3451
X5.4823Y-4.414
X5.4823Y-4.5026
X5.4823Y-4.5518
X5.4823Y-4.601
X5.4961Y-3.2126
X5.4961Y-3.4134
X5.5217Y-3.6364
X5.5217Y-3.7152
X5.5217Y-4.0301
X5.5217Y-4.1089
X5.5256Y-3.4829
X5.5315Y-4.601
X5.5551Y-4.5512
X5.561Y-3.538
X5.5825Y-3.2797
X5.5965Y-4.4789
X5.6004Y-3.6364
X5.6004Y-3.7152
X5.6004Y-3.7939
X5.6004Y-3.8726
X5.6004Y-3.9514
X5.6004Y-4.0301
X5.6004Y-4.1089
X5.6004Y-4.1876
X5.6201Y-3.3018
X5.6225Y-4.6462
X5.628Y-4.4396
X5.6594Y-3.0262
X5.6693Y-3.3937
X5.6791Y-3.8726
X5.6791Y-4.1089
X5.6791Y-4.1876
X5.7041Y-3.1457
X5.7067Y-3.3018
X5.7421Y-3.5577
X5.7539Y-3.2545
X5.7579Y-3.8726
X5.7579Y-4.1089
X5.7638Y-3.315
X5.7677Y-4.4961
X5.7717Y-4.5748
X5.7756Y-4.6614
X5.7795Y-3.437
X5.7795Y-3.5945
X5.815Y-3.315
X5.8228Y-4.6102
X5.8268Y-3.8037
X5.8366Y-3.8726
X5.8366Y-3.9514
X5.8366Y-4.0301
X5.8583Y-4.1929
X5.8661Y-3.7447
X5.8799Y-3.2388
X5.8799Y-3.2781
X5.8858Y-3.4213
X5.8858Y-3.5
X5.8858Y-3.5787
X5.8898Y-3.7953
X5.9094Y-3.315
X5.9154Y-3.8726
X5.9154Y-3.9514
X5.9154Y-4.0301
X5.9154Y-4.3254
X5.9154Y-4.3844
X5.9154Y-4.4435
X5.9241Y-3.1513
X5.9331Y-3.7362
X5.935Y-3.2388
X5.935Y-3.2781
X5.9404Y-4.1581
X5.9606Y-3.1339
X5.9646Y-3.4213
X5.9646Y-3.5
X5.9646Y-3.5787
X5.9744Y-4.3844
X5.9744Y-4.4435
X5.9744Y-4.5026
X5.9941Y-3.8726
X5.9941Y-3.9514
X5.9941Y-4.0301
X6.0059Y-3.3215
X6.0079Y-4.6732
X6.0118Y-3.685
X6.0236Y-3.2638
X6.0433Y-3.4213
X6.0433Y-3.5
X6.0433Y-3.5787
X6.0531Y-4.3254
X6.0531Y-4.4435
X6.0531Y-4.5026
X6.0728Y-3.9514
X6.0827Y-3.1811
X6.0886Y-3.315
X6.1083Y-4.5341
X6.1122Y-4.3254
X6.1122Y-4.4435
X6.1122Y-4.5026
X6.126Y-3.189
X6.1299Y-4.4016
X6.1496Y-3.3543
X6.1516Y-3.6364
X6.1516Y-3.7152
X6.1772Y-4.6417
X6.1811Y-4.1811
X6.185Y-3.3819
X6.2126Y-4.5984
X6.2283Y-3.2835
X6.2283Y-3.5669
X6.2303Y-3.6364
X6.2303Y-3.7152
X6.2303Y-4.1876
X6.2303Y-4.2663
X6.2323Y-3.4803
X6.248Y-3.4173
X6.25Y-3.3366
X6.25Y-3.376
X6.2559Y-4.6417
X6.2717Y-3.2283
X6.2717Y-3.5236
X6.2835Y-4.3504
X6.2992Y-3.3366
X6.2992Y-3.376
X6.3091Y-3.6364
X6.3091Y-3.7152
X6.3091Y-3.7939
X6.3091Y-4.1876
X6.3091Y-4.2663
X6.311Y-3.2008
X6.3484Y-3.3366
X6.3484Y-3.376
X6.3484Y-3.9514
X6.3543Y-4.6614
X6.3661Y-3.4803
X6.378Y-3.1732
X6.378Y-3.3071
X6.3878Y-3.7152
X6.3878Y-3.7939
X6.3878Y-4.1876
X6.3976Y-3.3366
X6.3976Y-3.376
X6.3976Y-3.4803
X6.4055Y-4.622
X6.4272Y-3.9514
X6.4291Y-3.4803
X6.4469Y-3.3366
X6.4469Y-3.376
X6.5059Y-3.8726
X6.5157Y-3.311
X6.5177Y-3.3884
X6.5177Y-3.4356
X6.5276Y-3.5433
X6.5354Y-4.6339
X6.54Y-4.3195
X6.5413Y-4.4041
X6.5591Y-3.2598
X6.5689Y-3.2112
X6.5709Y-3.5866
X6.5768Y-4.6679
X6.5787Y-4.0984
X6.5846Y-3.8726
X6.5984Y-3.311
X6.6122Y-4.6325
X6.6142Y-4.3583
X6.6142Y-4.4055
X6.6181Y-4.1299
X6.6319Y-3.7939
X6.6398Y-3.2309
X6.6417Y-3.2717
X6.6634Y-3.8726
X6.6634Y-3.9514
X6.6634Y-4.0301
X6.6713Y-3.7348
X6.6929Y-3.2323
X6.7126Y-3.4213
X6.7126Y-3.5
X6.7126Y-3.5787
X6.7202Y-4.1696
X6.7202Y-4.3191
X6.7202Y-4.4441
X6.7202Y-4.5941
X6.7421Y-3.7939
X6.7421Y-3.8726
X6.7421Y-3.9514
X6.7421Y-4.0301
X6.7913Y-3.4213
X6.7913Y-3.5
X6.7913Y-3.5787
X6.8051Y-3.2348
X6.8209Y-3.7939
X6.8209Y-3.8726
X6.8209Y-4.0301
X6.8406Y-3.7191
X6.8701Y-3.4213
X6.8701Y-3.5
X6.8701Y-3.5787
X6.876Y-3.7585
X6.878Y-4.3189
X6.878Y-4.5945
X6.8996Y-3.7939
X6.937Y-4.3504
X6.9528Y-3.7205
X6.9587Y-3.3116
X6.9587Y-3.351
X6.9783Y-3.7939
X6.9862Y-3.6364
X7.0039Y-4.378
X7.0059Y-4.6482
X7.0197Y-3.3346
X7.0197Y-4.1614
X7.0374Y-4.6167
X7.0492Y-3.6719
X7.0512Y-3.4173
X7.0669Y-4.4173
X7.0807Y-3.6246
X7.0866Y-4.3386
X7.0965Y-3.164
X7.1181Y-4.3228
X7.1358Y-3.7939
X7.1358Y-4.1089
X7.1358Y-4.1876
X7.1535Y-4.2874
X7.1752Y-3.3215
X7.1752Y-3.4002
X7.1752Y-3.4789
X7.1752Y-3.5577
X7.1752Y-3.6364
X7.1752Y-3.7152
X7.2146Y-4.0301
X7.2146Y-4.1089
X7.2146Y-4.1876
X7.2539Y-3.5577
X7.2539Y-3.7152
X7.2992Y-3.874
X7.2992Y-3.9606
X7.3248Y-4.0419
X7.3327Y-4.5813
X7.3327Y-4.6305
X7.3327Y-4.6797
X7.3366Y-3.4829
X7.3484Y-3.9907
X7.3642Y-3.4081
X7.3681Y-3.4514
X7.3799Y-3.1837
X7.3819Y-4.5813
X7.3819Y-4.6305
X7.3819Y-4.6797
X7.3839Y-3.9553
X7.3917Y-3.3844
X7.3957Y-4.0419
X7.3957Y-4.4081
X7.3976Y-4.3116
X7.4311Y-3.3766
X7.4311Y-3.4396
X7.4311Y-3.4986
X7.4311Y-3.5577
X7.4311Y-3.6167
X7.4311Y-3.6758
X7.4311Y-3.7348
X7.4311Y-3.7939
X7.4311Y-3.853
X7.4311Y-4.5813
X7.4311Y-4.6305
X7.4311Y-4.6797
X7.4665Y-4.4907
X7.4705Y-4.3057
X7.4902Y-3.3766
X7.4902Y-3.4396
X7.4902Y-3.4986
X7.4902Y-3.5577
X7.4902Y-3.6167
X7.4902Y-3.6758
X7.4902Y-3.7348
X7.5098Y-4.3057
X7.5197Y-3.1837
X7.5492Y-4.3057
X7.5689Y-3.1837
X7.5787Y-4.3451
X7.5787Y-4.3844
X7.5886Y-4.2663
X7.687Y-3.1837
X7.7362Y-3.1837
X7.7362Y-3.7348
X7.7539Y-3.6167
X7.7539Y-3.66
X7.7559Y-3.2382
X7.7559Y-3.2874
X7.7559Y-3.3366
X7.7579Y-4.4159
X7.7854Y-3.1837
X7.7894Y-3.3805
X7.7894Y-3.6994
X7.7933Y-3.5616
X7.7933Y-4.4514
X7.7953Y-3.2874
X7.7953Y-3.3366
X7.7953Y-3.7348
X7.8287Y-3.2382
X7.8543Y-3.0118
X7.8543Y-3.061
X7.8543Y-3.7348
X7.8543Y-3.7939
X7.8543Y-3.853
X7.8543Y-3.912
X7.8543Y-3.9711
X7.8543Y-4.0301
X7.8543Y-4.0892
X7.8543Y-4.1482
X7.8543Y-4.2073
X7.8543Y-4.2663
X7.8543Y-4.3254
X7.9035Y-3.0118
X7.9035Y-3.061
X7.9134Y-3.7348
X7.9528Y-3.061
X8.002Y-2.9626
X8.061Y-3.0118
X8.061Y-3.061
X8.061Y-3.1102
X8.061Y-3.1594
X8.063Y-4.315
X8.063Y-4.5472
X8.063Y-4.811
X8.0636Y-4.4285
X8.0636Y-4.6923
X8.0636Y-4.9285
X8.1004Y-3.5531
X8.1004Y-3.6516
X8.1004Y-4.1437
X8.1988Y-3.5531
X8.1988Y-3.6516
X8.1988Y-3.75
X8.1988Y-3.8484
X8.1988Y-3.9469
X8.1988Y-4.0453
X8.1988Y-4.1437
X8.2185Y-2.9626
X8.2185Y-3.061
X8.2185Y-3.1594
X8.2185Y-3.2579
X8.2677Y-4.2756
X8.2677Y-4.3937
X8.2677Y-4.5118
X8.2677Y-4.6614
X8.2677Y-4.8976
X8.2717Y-4.7756
X8.2972Y-2.9626
X8.2972Y-3.061
X8.2972Y-3.1594
X8.2972Y-3.2579
X8.2972Y-3.3563
X8.2972Y-3.4547
X8.2972Y-3.5531
X8.2972Y-3.6516
X8.2972Y-3.75
X8.2972Y-3.8484
X8.2972Y-3.9469
X8.2972Y-4.0453
X8.2972Y-4.1437
T2
X5.9843Y-3.7894
X7.185Y-3.2382
X5.748Y-3.9862
X6.5453Y-3.9862
X7.8976Y-3.2638
T3
X5.11Y-2.975
X5.11Y-3.075
X5.21Y-2.975
X5.21Y-3.075
X5.31Y-2.975
X5.31Y-3.075
X5.41Y-2.975
X5.41Y-3.075
X5.51Y-2.975
X5.51Y-3.075
X5.61Y-2.975
X5.61Y-3.075
X5.71Y-2.975
X5.71Y-3.075
X5.81Y-2.975
X5.81Y-3.075
X5.91Y-2.975
X5.91Y-3.075
X6.01Y-2.975
X6.01Y-3.075
X6.17Y-2.975
X6.17Y-3.075
X6.27Y-2.975
X6.27Y-3.075
X6.37Y-2.975
X6.37Y-3.075
X6.47Y-2.975
X6.47Y-3.075
X6.57Y-2.975
X6.57Y-3.075
X6.67Y-2.975
X6.67Y-3.075
X6.77Y-2.975
X6.77Y-3.075
X6.87Y-2.975
X6.87Y-3.075
X6.97Y-2.975
X6.97Y-3.075
X7.07Y-2.975
X7.07Y-3.075
X7.17Y-2.975
X7.17Y-3.075
X7.27Y-2.975
X7.27Y-3.075
X7.37Y-2.975
X7.37Y-3.075
X7.47Y-2.975
X7.47Y-3.075
X7.57Y-2.975
X7.57Y-3.075
X7.67Y-2.975
X7.67Y-3.075
X7.77Y-2.975
X7.77Y-3.075
X5.47Y-4.775
X5.47Y-4.875
X5.57Y-4.775
X5.57Y-4.875
X5.67Y-4.775
X5.67Y-4.875
X5.77Y-4.775
X5.77Y-4.875
X5.87Y-4.775
X5.87Y-4.875
X5.97Y-4.775
X5.97Y-4.875
X6.07Y-4.775
X6.07Y-4.875
X6.17Y-4.775
X6.17Y-4.875
X5.1102Y-4.2047
X5.4094Y-4.2047
X7.5713Y-3.2742
X7.6713Y-3.2742
X6.37Y-4.775
X6.37Y-4.875
X6.47Y-4.775
X6.47Y-4.875
X6.57Y-4.775
X6.57Y-4.875
X6.67Y-4.775
X6.67Y-4.875
X6.77Y-4.775
X6.77Y-4.875
X6.87Y-4.775
X6.87Y-4.875
X6.97Y-4.775
X6.97Y-4.875
X7.07Y-4.775
X7.07Y-4.875
X7.17Y-4.775
X7.17Y-4.875
X7.27Y-4.775
X7.27Y-4.875
X7.37Y-4.775
X7.37Y-4.875
X7.47Y-4.775
X7.47Y-4.875
X7.57Y-4.775
X7.57Y-4.875
X7.67Y-4.775
X7.67Y-4.875
X7.77Y-4.775
X7.77Y-4.875
T0
M30
